<?xml version="1.0" standalone="no"?>
<!DOCTYPE svg PUBLIC "-//W3C//DTD SVG 20010904//EN"
 "http://www.w3.org/TR/2001/REC-SVG-20010904/DTD/svg10.dtd">
<svg version="1.0" xmlns="http://www.w3.org/2000/svg"
 width="1016.000000pt" height="1016.000000pt" viewBox="0 0 1016.000000 1016.000000"
 preserveAspectRatio="xMidYMid meet">
<metadata>
Created by potrace 1.14, written by Peter Selinger 2001-2017
</metadata>
<g transform="translate(0.000000,1016.000000) scale(0.100000,-0.100000)"
fill="#000000" stroke="none">
<path d="M784 8266 c-33 -8 -92 -26 -130 -41 -112 -45 -118 -58 -29 -70 91
-11 201 -73 291 -163 87 -87 206 -242 277 -360 l48 -79 -35 -219 c-20 -120
-60 -373 -91 -562 -30 -188 -61 -355 -69 -370 -33 -63 -96 -102 -167 -102 -28
0 -39 -4 -39 -15 0 -13 35 -15 278 -13 176 2 277 7 277 13 0 6 -20 13 -44 16
-46 6 -75 32 -88 78 -7 29 118 882 129 879 4 -2 144 -237 311 -522 167 -286
308 -521 313 -523 6 -2 16 24 22 59 6 34 27 93 45 132 34 71 485 751 493 743
3 -2 36 -146 74 -320 38 -174 83 -358 100 -409 68 -206 182 -381 325 -501 78
-65 218 -139 310 -162 85 -23 227 -30 315 -16 95 15 210 51 210 67 0 7 -28 14
-75 18 -84 8 -164 32 -221 69 -99 62 -197 206 -258 375 -43 120 -70 241 -176
792 -224 1162 -199 1040 -213 1040 -7 0 -182 -255 -391 -566 -208 -311 -382
-562 -386 -557 -4 4 -107 172 -230 373 -123 201 -249 403 -281 450 -148 218
-351 384 -544 446 -100 32 -259 41 -351 20z"/>
<path d="M8267 7358 c-21 -57 -324 -731 -437 -971 -49 -105 -162 -130 -205
-47 -13 25 -15 99 -15 495 0 421 2 470 17 496 16 27 42 42 88 52 11 3 -108 5
-265 5 -163 0 -271 -3 -251 -8 18 -4 45 -20 60 -34 l26 -26 3 -225 3 -225
-221 0 -221 0 3 225 3 225 26 26 c15 14 42 30 60 34 20 5 -88 8 -251 8 -170 0
-271 -3 -250 -8 19 -5 47 -22 62 -39 l28 -31 0 -473 c0 -452 -1 -473 -20 -504
-11 -18 -30 -35 -42 -37 -13 -3 -32 -7 -43 -9 -11 -3 108 -5 265 -5 157 0 276
2 265 5 -11 2 -30 6 -43 9 -12 2 -31 19 -42 37 -18 29 -20 51 -20 250 l0 217
220 0 220 0 0 -215 c0 -167 -3 -222 -14 -243 -15 -29 -45 -49 -86 -55 -14 -2
169 -4 405 -5 237 0 419 3 406 7 -13 3 -33 19 -44 34 l-21 27 39 95 38 95 177
0 178 0 30 -77 c17 -43 33 -87 36 -99 8 -26 -26 -71 -57 -77 -12 -2 113 -4
278 -4 165 -1 284 2 265 6 -48 10 -75 26 -98 58 -11 16 -131 260 -267 543
-136 283 -250 521 -254 528 -5 9 -17 -13 -34 -60z m4 -591 c32 -77 56 -144 53
-149 -6 -10 -261 -11 -267 0 -3 4 17 57 44 117 26 61 58 133 69 160 25 60 20
67 101 -128z"/>
<path d="M4400 7395 c-110 -31 -195 -107 -222 -198 -21 -71 -16 -185 10 -242
41 -90 79 -119 301 -226 113 -55 220 -111 238 -125 97 -74 82 -194 -32 -250
-51 -24 -63 -26 -153 -22 -81 3 -107 8 -154 31 -94 46 -163 140 -175 238 -5
40 -8 47 -19 38 -35 -29 -66 -200 -48 -266 8 -30 105 -79 195 -99 103 -22 277
-22 370 1 134 32 235 99 279 185 45 89 49 224 9 307 -36 75 -89 112 -317 218
-268 126 -300 155 -273 246 22 73 131 117 258 106 109 -11 196 -76 209 -158 4
-22 8 -38 10 -36 6 6 37 248 32 252 -1 1 -106 5 -233 9 -189 5 -240 3 -285 -9z"/>
<path d="M5710 7404 c-223 -27 -412 -139 -488 -289 -49 -98 -62 -157 -62 -281
0 -221 77 -368 244 -468 127 -76 256 -107 446 -107 192 0 303 37 394 130 l49
50 -12 113 c-7 62 -16 131 -20 153 -6 39 -7 39 -28 -47 -59 -237 -143 -317
-343 -326 -127 -5 -186 16 -259 93 -89 94 -131 228 -131 415 0 232 75 392 218
462 61 30 74 33 163 33 90 0 100 -2 165 -35 81 -42 131 -101 168 -200 l24 -65
5 55 c4 30 8 98 11 151 5 113 12 105 -128 140 -79 20 -329 33 -416 23z"/>
<path d="M3479 7380 c18 -4 45 -20 60 -34 l26 -26 3 -458 c2 -251 0 -471 -3
-488 -7 -42 -49 -82 -88 -87 -18 -2 96 -4 253 -4 157 0 267 3 246 7 -24 4 -49
18 -63 34 l-23 27 0 479 0 480 28 31 c15 17 43 34 62 39 21 5 -80 8 -250 8
-163 0 -271 -3 -251 -8z"/>
<path d="M1825 5934 c-279 -41 -438 -98 -597 -216 -163 -120 -269 -276 -324
-474 -22 -80 -30 -282 -15 -383 61 -415 393 -707 879 -772 124 -17 401 -5 517
21 162 37 151 37 164 -1 20 -58 103 -180 170 -252 254 -269 628 -353 992 -224
131 46 127 57 -18 50 -139 -7 -205 7 -323 64 -55 26 -95 56 -151 112 -89 89
-146 182 -191 312 l-33 94 -3 308 -3 307 30 30 c25 25 37 30 80 30 39 0 51 4
51 15 0 13 -55 15 -431 15 -340 0 -430 -3 -427 -12 3 -8 30 -16 63 -19 48 -6
64 -12 83 -34 23 -28 23 -28 20 -269 -3 -265 -4 -268 -70 -335 -18 -19 -58
-46 -88 -60 -50 -24 -66 -26 -185 -26 -130 0 -130 0 -209 38 -244 116 -382
423 -363 806 13 266 88 462 233 606 112 112 221 150 409 142 300 -13 514 -158
601 -407 13 -35 27 -66 32 -68 10 -3 19 84 27 288 3 74 8 150 11 168 5 30 2
34 -33 48 -49 21 -226 60 -355 80 -99 14 -481 27 -543 18z"/>
<path d="M3665 5244 c-11 -2 -51 -12 -90 -20 -103 -24 -190 -70 -266 -141
-113 -106 -161 -230 -162 -413 0 -167 48 -294 148 -395 122 -122 275 -175 508
-175 166 0 249 16 365 72 192 91 291 257 294 488 1 184 -47 314 -156 418 -119
115 -253 162 -476 167 -80 2 -154 2 -165 -1z m270 -99 c75 -44 128 -124 161
-246 22 -77 26 -344 7 -425 -23 -97 -54 -163 -101 -215 -61 -68 -107 -89 -197
-89 -87 0 -135 21 -192 82 -50 56 -64 81 -94 178 -21 66 -24 94 -24 240 1 126
5 180 19 229 41 151 118 246 220 272 55 14 154 2 201 -26z"/>
<path d="M9155 5240 c-16 -4 -210 -9 -430 -10 -220 -1 -395 -3 -390 -5 6 -2
23 -6 38 -10 16 -3 40 -18 53 -32 l24 -26 0 -483 0 -483 -23 -26 c-12 -15 -38
-30 -57 -35 -20 -4 163 -8 428 -9 254 -1 462 2 462 7 0 10 48 301 55 332 3 14
-12 -11 -34 -56 -45 -91 -105 -153 -179 -187 -39 -18 -70 -22 -189 -25 l-143
-4 0 221 0 221 108 0 c157 -1 207 -28 243 -132 l18 -53 0 220 0 220 -18 -53
c-36 -104 -86 -131 -244 -132 l-107 0 2 228 3 227 145 -1 c120 0 151 -3 180
-18 69 -36 99 -78 111 -156 4 -28 7 16 8 113 1 173 5 165 -64 147z"/>
<path d="M4572 5220 c44 -8 71 -30 87 -68 8 -19 11 -166 9 -494 l-3 -467 -29
-30 c-16 -17 -42 -32 -60 -34 -17 -2 97 -4 254 -4 157 0 267 3 246 7 -24 4
-49 18 -63 34 -23 27 -23 32 -23 252 l0 224 218 -2 217 -3 0 -222 0 -223 -26
-26 c-15 -14 -42 -30 -60 -34 -20 -5 88 -8 251 -8 158 0 267 4 246 8 -24 4
-49 18 -63 34 l-23 27 0 483 c0 471 1 484 20 509 13 16 37 30 63 35 30 7 -42
10 -248 10 -239 0 -282 -2 -246 -11 28 -8 52 -22 65 -40 20 -27 21 -41 21
-245 l0 -217 -217 -3 -218 -2 0 215 c0 264 4 276 105 298 11 3 -110 5 -270 5
-159 0 -273 -4 -253 -8z"/>
<path d="M6002 5221 c43 -9 64 -24 84 -62 11 -23 14 -108 14 -484 0 -376 -3
-461 -14 -484 -19 -36 -39 -52 -79 -61 -17 -4 176 -8 430 -9 l463 -1 5 23 c10
45 55 331 52 333 -1 2 -13 -24 -26 -57 -30 -79 -112 -168 -183 -200 -45 -20
-73 -24 -190 -27 l-138 -4 0 482 c0 309 4 488 10 500 12 22 42 40 85 51 17 4
-100 7 -260 7 -159 0 -273 -4 -253 -7z"/>
<path d="M7050 5220 c19 -5 47 -22 62 -39 l28 -31 0 -471 c0 -505 -1 -511 -52
-536 -12 -7 -34 -14 -48 -16 -14 -2 103 -4 260 -4 157 -1 276 1 265 4 -11 2
-30 6 -43 9 -12 2 -31 19 -42 37 -19 31 -20 52 -20 504 l0 473 28 31 c15 17
43 34 62 39 21 5 -80 8 -250 8 -170 0 -271 -3 -250 -8z"/>
<path d="M7865 5223 c33 -8 47 -25 43 -52 -2 -14 -91 -144 -197 -288 l-192
-262 82 -133 c145 -234 196 -291 298 -329 84 -31 142 -39 285 -39 125 1 129 2
92 15 -22 8 -56 31 -77 52 -32 33 -415 597 -422 622 -1 5 62 88 141 184 149
181 183 210 264 226 30 6 -17 9 -147 9 -104 0 -181 -3 -170 -5z"/>
<path d="M980 3731 c0 -6 14 -11 32 -11 49 0 114 -37 140 -78 l23 -37 3 -535
c1 -294 1 -607 0 -695 l-3 -160 -59 55 c-150 141 -232 327 -251 568 -7 91 -19
116 -31 66 -14 -54 3 -306 25 -394 79 -303 285 -485 636 -560 293 -63 678 -43
903 47 144 57 257 143 323 246 72 111 88 280 39 410 -53 142 -249 276 -402
277 -40 0 -51 15 -19 25 11 3 44 33 75 65 74 80 99 146 100 265 1 83 -2 96
-32 157 -60 122 -202 220 -392 269 -82 22 -106 23 -597 26 -357 3 -513 1 -513
-6z m848 -150 c20 -10 47 -30 59 -43 98 -105 111 -425 22 -547 -22 -31 -40
-44 -74 -53 -25 -7 -44 -17 -42 -23 2 -5 28 -13 58 -16 136 -17 252 -94 298
-200 12 -26 26 -81 33 -123 31 -203 -61 -396 -226 -472 -58 -26 -170 -54 -223
-54 l-33 0 0 781 0 782 45 -6 c25 -4 62 -15 83 -26z"/>
<path d="M3318 3046 c-16 -50 -309 -702 -419 -932 -49 -104 -74 -130 -134
-145 -16 -4 44 -7 135 -8 147 0 162 1 134 13 -50 22 -52 55 -8 158 l37 88 176
0 176 0 34 -81 c18 -44 34 -91 34 -105 0 -30 -27 -61 -57 -67 -11 -2 110 -5
269 -5 259 -1 286 0 251 13 -22 8 -50 24 -62 37 -13 13 -138 261 -278 553
-140 291 -259 531 -263 532 -4 2 -16 -22 -25 -51z m-4 -586 c35 -85 62 -158
59 -162 -6 -10 -260 -10 -267 0 -6 11 131 329 139 321 2 -3 33 -74 69 -159z"/>
<path d="M4086 3074 c5 -11 10 -249 12 -530 3 -506 3 -510 -18 -537 -12 -15
-36 -31 -53 -36 -22 -6 55 -9 233 -9 183 0 255 3 232 9 -20 6 -40 22 -52 42
-19 30 -20 52 -20 315 0 155 3 282 8 282 4 0 177 -151 385 -336 208 -185 380
-334 382 -332 2 2 0 35 -6 74 -5 40 -8 267 -7 527 l3 457 27 26 c14 15 44 30
65 34 21 4 -95 8 -257 8 -162 0 -286 -2 -275 -5 11 -2 31 -6 43 -9 13 -3 35
-17 48 -31 l24 -26 0 -289 c0 -175 -4 -288 -9 -286 -5 2 -177 152 -381 333
-204 182 -376 332 -382 334 -8 3 -8 -2 -2 -15z"/>
<path d="M5395 3061 c43 -11 72 -31 84 -58 7 -16 11 -180 11 -491 0 -423 -2
-470 -17 -492 -18 -27 -37 -41 -68 -52 -11 -4 151 -6 360 -4 423 3 437 5 569
74 175 91 266 254 266 473 0 277 -142 462 -410 534 -56 16 -119 18 -445 21
-209 2 -366 -1 -350 -5z m656 -88 c130 -58 208 -229 209 -459 0 -174 -47 -321
-130 -405 -59 -59 -117 -79 -232 -79 l-88 0 0 486 0 487 98 -5 c67 -3 111 -11
143 -25z"/>
</g>
</svg>
