<svg width="127" height="98" viewBox="0 0 127 98" fill="none" xmlns="http://www.w3.org/2000/svg">
<path d="M44.76 40.872C46.1893 40.872 47.5653 40.5947 48.888 40.04V39.72H48.408C46.6587 39.72 45.2187 39.1333 44.088 37.96C42.6587 36.4667 41.5813 33.8 40.856 29.96L37.24 11.24H36.952L27.448 25.416L21.72 16.104C19.992 13.2453 17.912 11.1867 15.48 9.928C14.264 9.30933 12.9253 9 11.464 9C10.0027 9 8.51467 9.40533 7 10.216L7.096 10.536H7.352C8.86667 10.536 10.3813 11.368 11.896 13.032C13.2187 14.504 14.424 16.1893 15.512 18.088L13.304 31.816C13.1973 32.4133 12.9253 32.888 12.488 33.24C12.0507 33.592 11.544 33.768 10.968 33.768H10.456V34.088H17.464V33.8H16.984C16.6427 33.8 16.3493 33.656 16.104 33.368C15.8587 33.08 15.736 32.7653 15.736 32.424V32.296L17.336 21.544L25.112 34.856H25.4C25.3787 34.344 25.5067 33.7253 25.784 33C26.0613 32.2747 26.3813 31.656 26.744 31.144L32.216 23.016L33.688 29.768C34.392 33.1173 35.6187 35.7093 37.368 37.544C39.4587 39.7627 41.9227 40.872 44.76 40.872Z" fill="#070707"/>
<path d="M50.204 34.088V33.888H49.944C49.5973 33.888 49.2973 33.7647 49.044 33.518C48.7907 33.2713 48.664 32.9747 48.664 32.628V21.528C48.6773 21.1813 48.8073 20.888 49.054 20.648C49.3007 20.408 49.5973 20.288 49.944 20.288H50.204V20.088H43.024V20.288H43.284C43.6307 20.288 43.9273 20.408 44.174 20.648C44.4207 20.888 44.5507 21.1813 44.564 21.528V32.628C44.5507 32.9747 44.4207 33.2713 44.174 33.518C43.9273 33.7647 43.6307 33.888 43.284 33.888H43.024V34.088H50.204ZM56.604 34.368C58.5107 34.368 60.0373 33.9713 61.184 33.178C62.3307 32.3847 62.904 31.1813 62.904 29.568C62.904 27.9547 62.1307 26.7947 60.584 26.088L56.844 24.348C56.604 24.2547 56.4107 24.168 56.264 24.088C55.4107 23.648 55.0107 23.1147 55.064 22.488C55.104 21.9813 55.3673 21.5747 55.854 21.268C56.3407 20.9613 57.0273 20.808 57.914 20.808C58.8007 20.808 59.5307 21.0347 60.104 21.488C60.6773 21.9413 60.964 22.5347 60.964 23.268H61.164L61.604 20.008H60.044C58.6707 19.8747 57.544 19.808 56.664 19.808C55.3173 19.808 54.2373 20.1147 53.424 20.728C52.4507 21.4747 51.964 22.568 51.964 24.008C51.964 24.7147 52.1307 25.3613 52.464 25.948C52.8773 26.6947 53.544 27.2747 54.464 27.688L57.724 29.208C58.4707 29.5547 59.0107 29.9013 59.344 30.248C59.6773 30.5947 59.844 31.0113 59.844 31.498C59.844 31.9847 59.6007 32.418 59.114 32.798C58.6273 33.178 57.9307 33.368 57.024 33.368C55.6773 33.368 54.614 32.978 53.834 32.198C53.054 31.418 52.664 30.5347 52.664 29.548C52.664 29.4547 52.6707 29.368 52.684 29.288H52.504C52.1573 29.728 51.9107 30.3413 51.764 31.128C51.7107 31.448 51.684 31.778 51.684 32.118C51.684 32.458 51.744 32.7747 51.864 33.068C52.2373 33.4413 52.844 33.7513 53.684 33.998C54.524 34.2447 55.4973 34.368 56.604 34.368ZM73.154 34.358C75.894 34.3647 77.7573 33.5413 78.744 31.888L78.264 28.248H78.104C77.7307 30.2213 77.2107 31.5547 76.544 32.248C75.8373 32.9947 74.6973 33.368 73.124 33.368C71.764 33.328 70.7007 32.748 69.934 31.628C69.1673 30.508 68.784 28.9713 68.784 27.018C68.784 25.0647 69.1973 23.5413 70.024 22.448C70.8507 21.3547 72.004 20.808 73.484 20.808C74.5773 20.808 75.4907 21.0947 76.224 21.668C76.9573 22.2413 77.5173 23.2013 77.904 24.548H78.084L78.284 20.728C76.844 20.1147 75.1707 19.808 73.264 19.808C71.3573 19.808 69.7473 20.0947 68.434 20.668C67.1207 21.2413 66.1173 22.0747 65.424 23.168C64.7307 24.2613 64.384 25.5613 64.384 27.068C64.384 29.3747 65.1607 31.1647 66.714 32.438C68.2673 33.7113 70.414 34.3513 73.154 34.358ZM87.224 34.088V33.888H86.964C86.7373 33.888 86.524 33.8347 86.324 33.728C85.9107 33.488 85.6973 33.1213 85.684 32.628V27.588H91.064V32.648C91.0507 32.9947 90.9207 33.288 90.674 33.528C90.4273 33.768 90.1307 33.888 89.784 33.888H89.524V34.088H96.704V33.888H96.444C96.0973 33.888 95.8007 33.7647 95.554 33.518C95.3073 33.2713 95.1773 32.9747 95.164 32.628V21.548C95.1773 21.3213 95.2373 21.108 95.344 20.908C95.5973 20.4947 95.964 20.288 96.444 20.288H96.704V20.088H89.524V20.288H89.784C90.1307 20.288 90.4273 20.408 90.674 20.648C90.9207 20.888 91.0507 21.1813 91.064 21.528V26.588H85.684V21.528C85.6973 21.1813 85.8273 20.888 86.074 20.648C86.3207 20.408 86.6173 20.288 86.964 20.288H87.224V20.088H80.044V20.288H80.304C80.6507 20.288 80.9473 20.408 81.194 20.648C81.4407 20.888 81.5707 21.1813 81.584 21.528V32.628C81.5707 32.9747 81.4407 33.2713 81.194 33.518C80.9473 33.7647 80.6507 33.888 80.304 33.888H80.044V34.088H87.224ZM100.384 34.088V33.888H100.204C100.031 33.888 99.8673 33.838 99.714 33.738C99.5607 33.638 99.4607 33.5247 99.414 33.398C99.3673 33.2713 99.344 33.1547 99.344 33.048C99.344 32.9413 99.3773 32.8013 99.444 32.628L100.244 30.768H104.524L105.304 32.628C105.371 32.8013 105.404 32.9647 105.404 33.118C105.404 33.2713 105.331 33.438 105.184 33.618C105.037 33.798 104.817 33.888 104.524 33.888H104.344V34.088H111.924V33.888H111.764C111.071 33.888 110.511 33.5213 110.084 32.788L103.744 19.608H103.564C103.511 20.1013 103.131 21.0947 102.424 22.588L97.764 32.808C97.564 33.168 97.314 33.438 97.014 33.618C96.714 33.798 96.4107 33.888 96.104 33.888H95.924V34.088H100.384ZM104.104 29.768H100.684L102.424 25.768L104.104 29.768Z" fill="black" fill-opacity="0.6"/>
<path d="M40.952 67.872C42.6587 67.872 44.472 67.456 46.392 66.624L46.328 66.304C45.6453 66.4533 44.952 66.528 44.248 66.528C43.544 66.528 42.84 66.4213 42.136 66.208C39.704 65.44 37.9333 63.712 36.824 61.024C36.3333 59.808 36.088 58.5813 36.088 57.344V52.16C36.0667 51.6907 36.1947 51.328 36.472 51.072C36.7493 50.816 37.144 50.688 37.656 50.688H38.168V50.368H27.416V50.688H27.896C28.4293 50.688 28.84 50.816 29.128 51.072C29.416 51.328 29.5493 51.6907 29.528 52.16V56.512C29.528 57.536 29.1387 58.3627 28.36 58.992C27.5813 59.6213 26.5147 59.936 25.16 59.936C23.8053 59.936 22.5733 59.5253 21.464 58.704C20.3547 57.8827 19.5013 56.7253 18.904 55.232C18.3067 53.7387 18.008 52.0213 18.008 50.08C18.008 47.008 18.7013 44.5333 20.088 42.656C21.4747 40.7787 23.2347 39.84 25.368 39.84C27.5013 39.84 29.32 40.336 30.824 41.328C32.328 42.32 33.336 43.8187 33.848 45.824H34.136L34.456 39.68C33.816 39.424 32.984 39.1893 31.96 38.976C29.6773 38.4853 27.3307 38.24 24.92 38.24C20.7387 38.24 17.368 39.3013 14.808 41.424C12.248 43.5467 10.968 46.3573 10.968 49.856C10.968 53.3547 12.2213 56.176 14.728 58.32C17.2347 60.464 20.504 61.536 24.536 61.536C26.584 61.536 28.536 61.248 30.392 60.672C31.16 62.5493 32.3227 64.1173 33.88 65.376C35.4373 66.6347 37.2827 67.4347 39.416 67.776C39.928 67.84 40.44 67.872 40.952 67.872Z" fill="#070707"/>
<path d="M47.552 61.368C50.1387 61.368 52.172 60.7247 53.652 59.438C55.132 58.1513 55.872 56.368 55.872 54.088C55.872 52.5813 55.5387 51.278 54.872 50.178C54.2053 49.078 53.2487 48.2413 52.002 47.668C50.7553 47.0947 49.272 46.808 47.552 46.808C44.9653 46.808 42.9353 47.4513 41.462 48.738C39.9887 50.0247 39.252 51.808 39.252 54.088C39.252 56.368 39.9887 58.1513 41.462 59.438C42.9353 60.7247 44.9653 61.368 47.552 61.368ZM47.562 60.368C46.342 60.368 45.3853 59.8147 44.692 58.708C44.012 57.6013 43.672 56.0613 43.672 54.088C43.672 52.1147 44.0153 50.5747 44.702 49.468C45.3887 48.3613 46.342 47.808 47.562 47.808C48.782 47.808 49.7353 48.3613 50.422 49.468C51.1087 50.5747 51.452 52.1147 51.452 54.088C51.452 56.0613 51.1087 57.6013 50.422 58.708C49.7353 59.8147 48.782 60.368 47.562 60.368ZM63.932 61.088V60.888H63.672C63.4453 60.888 63.232 60.8347 63.032 60.728C62.6187 60.488 62.4053 60.1213 62.392 59.628V54.588H67.772V59.648C67.7587 59.9947 67.6287 60.288 67.382 60.528C67.1353 60.768 66.8387 60.888 66.492 60.888H66.232V61.088H73.412V60.888H73.152C72.8053 60.888 72.5087 60.7647 72.262 60.518C72.0153 60.2713 71.8853 59.9747 71.872 59.628V48.548C71.8853 48.3213 71.9453 48.108 72.052 47.908C72.3053 47.4947 72.672 47.288 73.152 47.288H73.412V47.088H66.232V47.288H66.492C66.8387 47.288 67.1353 47.408 67.382 47.648C67.6287 47.888 67.7587 48.1813 67.772 48.528V53.588H62.392V48.528C62.4053 48.1813 62.5353 47.888 62.782 47.648C63.0287 47.408 63.3253 47.288 63.672 47.288H63.932V47.088H56.752V47.288H57.012C57.3587 47.288 57.6553 47.408 57.902 47.648C58.1487 47.888 58.2787 48.1813 58.292 48.528V59.628C58.2787 59.9747 58.1487 60.2713 57.902 60.518C57.6553 60.7647 57.3587 60.888 57.012 60.888H56.752V61.088H63.932ZM86.312 61.088L87.072 56.448H86.872C86.5653 57.5813 86.0387 58.468 85.292 59.108C84.5453 59.748 83.6853 60.068 82.712 60.068H80.252V48.548C80.252 48.2013 80.3787 47.9047 80.632 47.658C80.8853 47.4113 81.1853 47.288 81.532 47.288H81.792V47.088H74.612V47.288H74.872C75.0987 47.288 75.312 47.3413 75.512 47.448C75.9253 47.688 76.1387 48.0547 76.152 48.548V59.628C76.1387 59.9747 76.0087 60.2713 75.762 60.518C75.5153 60.7647 75.2187 60.888 74.872 60.888H74.612V61.088H86.312ZM94.832 61.088V60.888H94.572C94.2253 60.888 93.9253 60.7647 93.672 60.518C93.4187 60.2713 93.292 59.9747 93.292 59.628V48.528C93.3053 48.1813 93.4353 47.888 93.682 47.648C93.9287 47.408 94.2253 47.288 94.572 47.288H94.832V47.088H87.652V47.288H87.912C88.2587 47.288 88.5553 47.408 88.802 47.648C89.0487 47.888 89.1787 48.1813 89.192 48.528V59.628C89.1787 59.9747 89.0487 60.2713 88.802 60.518C88.5553 60.7647 88.2587 60.888 87.912 60.888H87.652V61.088H94.832ZM104.012 61.088V60.888C103.239 60.8613 102.525 60.3547 101.872 59.368L97.192 52.328L100.572 48.248C101.145 47.5947 101.879 47.268 102.772 47.268H102.852V47.088H98.032V47.268H98.232C98.512 47.268 98.6987 47.368 98.792 47.568C98.832 47.648 98.852 47.7413 98.852 47.848C98.852 47.9547 98.8053 48.0747 98.712 48.208L93.932 54.728C93.932 54.7413 94.2953 55.338 95.022 56.518C95.7487 57.698 96.312 58.5547 96.712 59.088C97.6853 60.4213 99.3987 61.088 101.852 61.088H104.012ZM115.772 61.088L116.532 56.448H116.332C116.025 57.5813 115.499 58.468 114.752 59.108C114.005 59.748 113.145 60.068 112.172 60.068H109.712V54.688H111.912C112.539 54.7013 113.052 54.9113 113.452 55.318C113.852 55.7247 114.052 56.2413 114.052 56.868V56.968H114.252V51.408H114.052V51.488C114.052 52.128 113.852 52.6513 113.452 53.058C113.052 53.4647 112.532 53.6747 111.892 53.688H109.712V48.108H112.612C113.132 48.1213 113.579 48.2347 113.952 48.448C114.725 48.8747 115.112 49.6213 115.112 50.688V50.848H115.312V46.728C115.192 46.7813 114.909 46.8547 114.462 46.948C114.015 47.0413 113.505 47.088 112.932 47.088H104.072V47.288H104.332C104.612 47.288 104.859 47.368 105.072 47.528C105.419 47.7813 105.599 48.1213 105.612 48.548V59.628C105.599 59.9747 105.469 60.2713 105.222 60.518C104.975 60.7647 104.679 60.888 104.332 60.888H104.072V61.088H115.772Z" fill="black" fill-opacity="0.6"/>
<path d="M23.512 88.6C27.8 88.6 30.9787 87.6187 33.048 85.656C34.264 84.5253 34.872 83.1067 34.872 81.4C34.872 79.6933 34.264 78.3387 33.048 77.336C31.832 76.3333 30.4987 75.832 29.048 75.832H28.728C29.24 75.64 29.6987 75.32 30.104 74.872C31.0213 73.9333 31.48 72.7707 31.48 71.384C31.48 70.1253 31.0213 69.048 30.104 68.152C28.3973 66.5093 25.7307 65.688 22.104 65.688H12.248V66.008H12.664C13.1973 66.008 13.6667 66.1947 14.072 66.568C14.4773 66.9413 14.6907 67.416 14.712 67.992V84.792C12.088 82.8293 10.776 79.864 10.776 75.896L10.456 75.928C10.392 76.568 10.36 77.1973 10.36 77.816C10.36 85.0053 14.744 88.6 23.512 88.6ZM21.272 86.872V67.32C22.4453 67.4053 23.2773 67.7893 23.768 68.472C24.2587 69.1547 24.536 70.1893 24.6 71.576V72.536C24.6 73.1333 24.4613 73.8267 24.184 74.616C24.0347 74.9787 23.8053 75.2827 23.496 75.528C23.1867 75.7733 22.808 75.896 22.36 75.896V76.184C23.6827 76.184 24.8453 76.5893 25.848 77.4C26.8507 78.2107 27.352 79.5227 27.352 81.336C27.352 82.9787 26.8187 84.3067 25.752 85.32C24.6853 86.3333 23.192 86.8507 21.272 86.872Z" fill="#070707"/>
<path d="M38.488 88.088V87.888H38.308C38.1347 87.888 37.9713 87.838 37.818 87.738C37.6647 87.638 37.5647 87.5247 37.518 87.398C37.4713 87.2713 37.448 87.1547 37.448 87.048C37.448 86.9413 37.4813 86.8013 37.548 86.628L38.348 84.768H42.628L43.408 86.628C43.4747 86.8013 43.508 86.9647 43.508 87.118C43.508 87.2713 43.4347 87.438 43.288 87.618C43.1413 87.798 42.9213 87.888 42.628 87.888H42.448V88.088H50.028V87.888H49.868C49.1747 87.888 48.6147 87.5213 48.188 86.788L41.848 73.608H41.668C41.6147 74.1013 41.2347 75.0947 40.528 76.588L35.868 86.808C35.668 87.168 35.418 87.438 35.118 87.618C34.818 87.798 34.5147 87.888 34.208 87.888H34.028V88.088H38.488ZM42.208 83.768H38.788L40.528 79.768L42.208 83.768ZM65.088 88.368L65.028 88.088C64.8947 87.5547 64.828 86.7947 64.828 85.808V75.488C64.8413 75.1547 64.968 74.8713 65.208 74.638C65.448 74.4047 65.7347 74.288 66.068 74.288H66.428V74.088H59.108V74.288H59.488C59.8213 74.288 60.108 74.4047 60.348 74.638C60.588 74.8713 60.7147 75.1613 60.728 75.508V82.308L51.148 73.788H50.948L51.008 74.068C51.1413 74.6147 51.208 75.3547 51.208 76.288V86.668C51.208 87.0147 51.088 87.3047 50.848 87.538C50.608 87.7713 50.3213 87.888 49.988 87.888H49.608V88.088H56.928V87.888H56.548C56.3347 87.888 56.1347 87.8347 55.948 87.728C55.5347 87.5013 55.328 87.148 55.328 86.668V79.848L64.908 88.368H65.088ZM74.608 88.088C77.1147 88.088 79.0713 87.4713 80.478 86.238C81.8847 85.0047 82.588 83.288 82.588 81.088C82.588 78.888 81.8847 77.1713 80.478 75.938C79.0713 74.7047 77.1147 74.088 74.608 74.088H67.028L67.048 74.288H67.288C67.6213 74.288 67.918 74.398 68.178 74.618C68.438 74.838 68.568 75.108 68.568 75.428V86.628C68.5547 86.9747 68.4247 87.2713 68.178 87.518C67.9313 87.7647 67.6347 87.888 67.288 87.888H67.028V88.088H74.608ZM74.208 87.088H72.668V75.088H74.208C75.448 75.088 76.4213 75.618 77.128 76.678C77.8347 77.738 78.188 79.208 78.188 81.088C78.188 82.968 77.8347 84.438 77.128 85.498C76.4213 86.558 75.448 87.088 74.208 87.088Z" fill="black" fill-opacity="0.6"/>
</svg>
